<svg 
width="751" 
height="404" 
viewBox="0 0 751 404" 
fill="none" 
xmlns="http://www.w3.org/2000/svg">
<path d="M349.853 403.46C314.341 402.279 290.043 399.89 277.973 396.392C273.207 395.011 267.074 394.604 239.113 393.817C205.232 392.864 187.783 392.006 172.884 390.561C142.608 387.625 123.889 383.653 107.743 376.741C104.424 375.32 99.9991 373.598 97.9092 372.914C78.5068 366.563 53.1577 368.159 26.8787 377.387C19.9885 379.807 16.1785 381.414 8.21696 385.259C4.10284 387.246 0.570983 388.871 0.368375 388.871C0.16577 388.871 0 388.595 0 388.258C0 387.479 8.98966 382.894 17.2024 379.484C36.2536 371.573 53.9369 367.716 71.3898 367.665C85.2973 367.625 94.2049 369.377 106.44 374.557C120.302 380.427 130.455 383.192 148.692 386.066C169.019 389.269 191.135 390.923 226.426 391.877C261.594 392.828 273.66 393.501 278.033 394.756C288.375 397.725 298.793 399.085 323.405 400.678C341.104 401.824 353.076 402.209 379.527 402.483C436.596 403.072 481.069 400.298 497.436 395.126C502.966 393.379 504.346 392.253 507.513 386.903C512.231 378.933 514.636 377.051 526.177 372.294C528.306 371.417 533.641 368.915 538.032 366.735C552.248 359.676 559.236 354.261 552.141 355.803C549.034 356.478 537.281 361.342 535.318 362.764C533.461 364.111 523.938 368.773 520.335 370.1C517.184 371.26 514.702 373.056 512.183 375.999C505.297 384.042 501.899 386.376 492.225 389.708C481.77 393.308 473.255 394.923 458.228 396.155C436.327 397.95 374.852 397.961 334.371 396.178C296.018 394.487 283.392 393.577 277.479 392.077C271.602 390.586 269.927 389.427 267.181 384.953C264.953 381.323 264.884 381.259 260.3 378.637C257.754 377.18 251.896 374.228 247.284 372.077C242.672 369.926 238.269 367.868 237.499 367.503C236.124 366.851 236.074 366.865 234.455 368.327C229.783 372.548 221.067 374.336 212.969 372.735C207.61 371.675 203.018 369.13 198.644 364.797C193.271 359.475 190.313 353.992 188.575 346.138C187.479 341.182 187.844 332.898 189.402 327.374C191.355 320.45 203.137 297.347 212.879 281.34C222.275 265.901 234.473 248.471 244.922 235.556C256.736 220.952 262.867 213.237 264.871 210.452C267.107 207.346 269.646 202.56 269.647 201.453C269.647 200.601 268.409 198.388 266.566 195.947C264.281 192.92 262.902 189.292 262.363 184.883C262.112 182.832 261.708 179.53 261.466 177.545C260.888 172.793 259.673 169.356 255.866 161.693C252.149 154.209 251.744 152.057 253.287 147.957C256.178 140.274 264.11 140.292 273.545 148.004C275.304 149.442 276.913 150.619 277.121 150.619C277.329 150.619 278.273 149.92 279.22 149.065C282.929 145.714 288.611 144.192 291.786 145.698C294.372 146.925 297.265 151.553 300.118 159.022C302.278 164.679 305.461 176.442 305.497 178.899C305.526 180.894 305.366 181.328 304.159 182.536C302.955 183.739 302.444 183.928 299.976 184.086C292.072 184.589 288.87 181.49 287.229 171.747C286.194 165.598 285.802 164.339 284.485 162.918C281.588 159.792 275.386 163.453 272.17 170.187C270.724 173.217 270.648 174.67 271.807 177.222C272.924 179.684 272.873 181.519 271.577 185.578C270.286 189.619 270.163 193.58 271.261 195.776C271.745 196.746 272.7 197.635 273.948 198.28C277.577 200.153 281.811 199.03 289.852 194.06C297.932 189.067 296.897 189.297 322.74 186.731C341.983 184.819 344.42 184.343 350.483 181.314C354.716 179.199 355.868 178.809 358.335 178.657C360.921 178.496 361.465 178.612 363.496 179.75C364.932 180.556 366.662 181.114 368.206 181.269C369.668 181.416 373.029 182.46 376.592 183.872C379.862 185.168 385.441 187.139 388.989 188.252C392.537 189.364 397.181 190.823 399.31 191.492C401.467 192.17 404.037 192.685 405.116 192.653C406.73 192.606 408.549 193.299 416.082 196.828C435.753 206.043 448.393 210.909 454.204 211.504C457.288 211.82 461.737 210.851 462.15 209.773C462.387 209.156 461.951 208.268 459.504 204.377C457.098 200.551 457.637 199.152 461.58 198.982C462.812 198.929 463.896 198.863 463.991 198.836C464.373 198.725 460.57 196.236 456.723 194.079C450.183 190.412 448.593 188.747 448.567 185.533C448.548 183.396 449.014 182.329 450.77 180.471L452.025 179.143L450.373 177.998C449.464 177.368 448.083 176.195 447.304 175.392C446.077 174.125 445.89 173.643 445.905 171.768C445.924 169.235 446.996 166.912 449.052 164.941C450.514 163.539 453.101 162.231 454.411 162.231C454.811 162.231 457.285 163.295 459.909 164.595C462.984 166.119 466.861 167.576 470.82 168.693C474.197 169.647 479.873 171.5 483.433 172.813C495.352 177.206 498.948 177.997 500.874 176.648C502.174 175.738 502.436 174.118 501.832 170.734L501.302 167.769L496.949 164.189C490.476 158.865 487.84 157.152 484.663 156.206C479.333 154.619 477.41 152.52 477.062 147.912C476.894 145.684 477.028 144.932 477.877 143.354C479.854 139.675 484.017 138.879 490.195 141C496.895 143.299 510.722 150.687 516.239 154.915C517.785 156.101 519.154 157.07 519.281 157.07C519.8 157.07 519.455 154.8 518.581 152.465C517.278 148.983 513.785 145.407 509.85 143.526C508.186 142.73 504.52 141.288 501.704 140.322C495.366 138.146 493.915 137.281 493.256 135.286C492.765 133.8 492.891 130.345 493.507 128.364C493.779 127.491 493.665 127.396 492.344 127.396C490.466 127.396 488.443 128.441 484.97 131.204C480.341 134.888 477.362 135.788 473.422 134.694C469.938 133.726 465.689 128.614 460.866 119.585L458.417 115L454.882 114.713C447.499 114.116 438.005 116.115 429.414 120.077C425.219 122.012 422.217 123.924 418.144 127.255C410.144 133.799 389.436 143.766 369.636 150.601C359.962 153.941 356.75 154.626 350.928 154.589C345.283 154.555 341.35 153.696 335.701 151.269C333.768 150.439 332.027 149.759 331.834 149.759C331.641 149.759 331.605 150.248 331.755 150.846C331.905 151.443 332.035 153.911 332.043 156.329C332.059 160.676 332.044 160.739 330.775 161.874C328.554 163.858 323.014 164.018 319.427 162.202C317.594 161.274 317.583 161.301 318.459 164.666C319.19 167.472 319.3 171.122 318.701 172.698C317.985 174.579 315.547 176.046 312.707 176.304C311.3 176.431 309.654 176.411 309.048 176.259C306.596 175.644 304.953 172.636 303.847 166.738C302.903 161.7 301.506 158.137 298.442 152.955C297.033 150.574 295.881 148.237 295.881 147.762C295.881 145.465 302.515 142.034 306.98 142.023C308.105 142.02 308.729 141.849 308.568 141.589C308.146 140.906 304.34 141.074 297.549 142.074C290.72 143.079 289.147 142.971 288.77 141.468C288.627 140.898 289.849 135.912 291.746 129.326C297.503 109.334 299.903 98.3718 301.443 85.0205C301.934 80.7713 302.742 74.8756 303.241 71.9189C306.855 50.4669 316.312 29.1766 327.455 17.4042C333.291 11.2393 337.86 8.58218 348.565 5.12921C358.267 1.99964 364.962 1.55925 369.72 3.73755C371.835 4.7059 372.219 4.76635 372.82 4.22516C375.497 1.81563 382.271 -0.00286904 388.559 3.39815e-06C402.765 0.00756245 415.788 8.68304 426.08 24.9985C427.364 27.0333 428.906 29.6656 429.509 30.8483C430.111 32.0309 431.503 34.063 432.603 35.3639C442.778 47.4017 449.285 61.2219 458.013 89.3307C461.122 99.3422 463.207 104.647 464.862 106.754C468.302 111.133 467.537 113.285 462.513 113.358C459.768 113.398 459.516 113.792 461.776 114.511C465.713 115.762 469.896 119.46 473.191 124.601C476.637 129.976 477.391 130.172 479.66 126.277C481.472 123.167 482.388 122.355 484.715 121.797C489.35 120.685 497.045 123.106 498.62 126.174C498.907 126.731 499.987 127.357 501.449 127.814C510.887 130.758 525.95 138.797 529.406 142.733C530.709 144.217 530.785 144.477 530.578 146.754C530.437 148.311 529.582 151.038 528.209 154.313C525.258 161.349 524.942 162.465 524.991 165.672C525.135 175.247 533.167 200.807 538.439 208.47C541.47 212.875 550.595 223.058 573.521 247.618C586.707 261.743 596.66 272.58 602.733 279.422C604.623 281.551 606.274 283.39 606.403 283.508C607.092 284.141 615.598 294.462 617.482 296.951C622.113 303.07 625.462 309.854 627.688 317.624C629.519 324.017 630.102 328.248 630.127 335.33C630.169 346.719 627.704 355.132 622.154 362.543C621.22 363.791 620.537 364.894 620.638 364.995C620.905 365.262 628.638 362.942 634.337 360.883C649.782 355.306 656.592 353.872 667.667 353.867C676.255 353.863 682.016 354.67 690.289 357.035C711.364 363.06 727.75 362.573 741.422 355.514C743.433 354.476 746.098 352.733 747.346 351.64C748.944 350.239 749.832 349.74 750.356 349.948C751.54 350.419 746.723 354.518 742.339 356.769C733.581 361.266 725.488 362.898 713.898 362.503C705.424 362.214 701.995 361.66 691.036 358.808C679.217 355.732 674.992 355.178 665.517 355.461C655.5 355.761 652.473 356.42 636.488 361.776C629.51 364.114 622.361 366.353 620.601 366.751C618.841 367.15 616.229 368.12 614.796 368.908C608.451 372.395 601.165 372.5 591.331 369.247C577.458 364.658 559.516 350.883 549.393 337.05C547.316 334.212 545.544 331.804 545.454 331.699C545.365 331.593 544.697 332.228 543.971 333.109C541.963 335.545 539.653 336.542 536.162 336.477C533.623 336.43 526.507 335.095 522.199 333.857C521.431 333.635 520.802 333.511 520.802 333.579C520.802 333.647 521.479 335.002 522.307 336.59C524.83 341.432 524.122 345.922 520.603 347.393C517.903 348.521 511.227 349.266 499.8 349.714C490.296 350.087 487.681 350.337 483.546 351.264C477.47 352.627 475.914 352.564 475.727 350.948C475.479 348.794 478.452 344.36 484 338.615C487.935 334.54 492.616 331.176 496.211 329.839C498.221 329.092 499.569 328.937 503.814 328.962C509.265 328.996 509.106 328.535 503.489 328.023C496.557 327.39 491.173 329.352 482.742 335.584C480.14 337.507 477.14 339.5 476.076 340.013C474.408 340.816 474.17 341.092 474.355 342.008C474.769 344.052 474.566 348.243 473.987 349.615C473.086 351.748 472.128 351.769 468.757 349.732C464.197 346.978 461.37 346.244 454.29 345.979C446.632 345.692 442.48 346.378 432.425 349.592C420.629 353.361 416.515 353.555 410.09 350.641C403.05 347.449 399.524 340.631 401.932 334.867C403.087 332.102 407.05 328.625 410.876 327.019C419.736 323.299 428.44 324.867 445.111 333.186C453.2 337.223 460.534 339.862 465.162 340.402C467.679 340.696 468.414 340.078 466.343 339.408C464.394 338.779 460.653 336.654 453.497 332.114C435.129 320.459 429.194 318.718 419.099 322.026C411.922 324.377 409.45 325.544 406.335 328.054C402.662 331.012 396.492 334.995 389.419 338.975C386.344 340.705 381.796 343.32 379.312 344.786C369.003 350.873 363.54 351.73 352.219 349.036C347.99 348.029 332.557 348.032 321.254 349.04C309.741 350.067 297.071 350.38 290.935 349.79C274.559 348.214 258.614 343.915 255.078 340.124L254.055 339.028L251.637 340.237C247.401 342.357 246.568 342.482 236.002 342.583C225.183 342.687 222.758 343.088 220.33 345.176C219.218 346.133 219.204 346.197 220.001 346.602C220.519 346.865 222.219 346.895 224.491 346.68C230.626 346.099 247.927 347.439 256.53 349.162C261.104 350.078 269.214 352.883 272.544 354.7L275.226 356.164L286.071 354.662C298.354 352.961 307.814 351.983 315.663 351.604C321.75 351.309 323.94 351.838 324.678 353.779L325.087 354.853L328.009 354.046C336.012 351.835 348.875 350.632 356.557 351.376C363.008 352 365.559 352.778 366.525 354.413L367.271 355.675L371.034 354.197C383.24 349.404 396.051 347.752 403.839 349.965C409.958 351.704 412.946 354.297 413.503 358.348L413.797 360.486L416.875 360.243C418.568 360.11 422.565 359.625 425.759 359.167C437.073 357.544 448.302 356.99 450.413 357.952C451.521 358.457 453.282 361.519 453.282 362.941C453.282 363.411 452.91 364.132 452.454 364.545C451.685 365.24 451.048 365.258 443.579 364.787C434.275 364.2 431.497 364.365 420.5 366.156C416.02 366.885 411.944 367.341 411.315 367.183C410.125 366.885 410.114 366.77 410.946 363.391C411.202 362.352 411.114 362.208 410.219 362.21C409.659 362.211 408.572 362.595 407.804 363.064C406.738 363.713 406.406 364.216 406.406 365.177C406.406 368.414 407.356 368.596 417.634 367.32C423.91 366.542 428.075 366.319 437.8 366.245C446.156 366.18 450.855 365.967 452.564 365.577L455.071 365.004L455.865 362.638C457.328 358.287 458.77 357.632 472.85 354.934C487.936 352.044 497.595 351.169 501.452 352.345C503.328 352.916 510.36 352.854 513.255 352.24C515.809 351.699 518.343 350.475 522.559 347.748C531.655 341.864 543.467 338.422 547.467 340.491C550.968 342.302 549.506 349.276 544.385 355.193C543.454 356.269 542.756 357.212 542.833 357.289C542.91 357.367 544.807 356.74 547.047 355.896C551.447 354.24 553.693 353.78 555.348 354.195C558.475 354.98 556.008 358.568 549.869 362.163C542.724 366.347 528.776 373.125 522.196 375.61C516.171 377.886 512.777 380.959 508.83 387.711C507.355 390.236 505.524 392.768 504.748 393.361C497.593 398.818 474.479 402.018 431.564 403.494C417.433 403.979 364.805 403.959 349.853 403.46ZM436.51 395.754C456.797 394.987 469.931 393.826 478.319 392.058C489.367 389.729 500.892 385.19 505.034 381.537C506.177 380.528 508.168 378.38 509.459 376.762C513.301 371.947 515.184 370.498 520.218 368.482C524.478 366.777 526.952 365.634 526.774 365.456C526.68 365.362 523.895 366.05 520.585 366.985C512.608 369.239 501.379 371.465 493.226 372.408C481.273 373.792 426.979 373.341 376.302 371.437C335.306 369.896 300.477 368.121 279.323 366.492C258.984 364.926 242.654 362.771 239.858 361.284C239.219 360.943 238.958 361.207 238.212 362.941C237.725 364.075 237.293 365.146 237.252 365.321C237.211 365.496 241.435 367.633 246.639 370.07C262.997 377.729 265.718 379.435 268.113 383.529C270.287 387.245 271.65 388.531 274.62 389.667C280.6 391.956 295.601 393.136 341.252 394.911C372.466 396.124 416.418 396.513 436.51 395.754ZM483.387 371.66C501.345 370.56 517.977 367.046 533.703 361.028C537.519 359.568 538.031 359.221 541.447 355.783C545.433 351.772 547.425 348.45 547.791 345.206C548.282 340.849 544.842 340.187 536.075 342.951C532.638 344.035 526.103 347.28 520.875 350.499C517.338 352.677 513.772 354.036 511.597 354.036C510.18 354.036 510.196 354.244 511.753 356.017C514.528 359.177 514.311 362.666 511.16 365.571C508.276 368.229 506.166 368.702 495.998 368.973C486.976 369.213 479.228 368.723 473.171 367.53C470.608 367.026 468.387 366.94 463.541 367.16C459.453 367.346 456.948 367.289 456.406 366.999C455.812 366.681 454.482 366.727 451.806 367.161C449.216 367.58 444.866 367.751 437.868 367.708C429.675 367.657 426.27 367.827 420.383 368.58C407.387 370.242 405.246 369.893 404.812 366.041C404.627 364.394 404.764 363.901 405.727 362.757C406.35 362.017 407.435 361.3 408.138 361.164C412.301 360.361 411.997 360.548 411.997 358.791C411.997 355.912 409.812 353.76 405.116 352.012C402.066 350.876 401.505 350.811 394.795 350.811C388.192 350.811 387.325 350.908 382.323 352.202C379.366 352.966 374.706 354.443 371.966 355.482C367.289 357.257 366.81 357.551 364.117 360.311C362.54 361.928 361.25 363.306 361.25 363.374C361.25 364.047 367.52 362.438 376.087 359.567C379.635 358.378 383.958 357.131 385.694 356.796C391.994 355.58 404.171 356.348 405.893 358.07C406.762 358.938 406.157 360.364 404.548 361.245C403.375 361.886 402.116 361.979 395.683 361.896C387.053 361.785 385.802 362.019 374.324 365.892C367.984 368.031 367.076 368.228 363.572 368.223C357.426 368.216 353.079 366.7 353.079 364.566C353.079 363.23 355.074 361.74 360.804 358.796C363.125 357.604 365.129 356.354 365.258 356.018C365.576 355.189 364.4 354.226 362.325 353.617C361.379 353.339 357.412 353.007 353.509 352.879C345.016 352.6 337.5 353.357 329.212 355.326C324.522 356.44 323.469 356.842 322.669 357.818C322.144 358.458 321.708 359.224 321.7 359.52C321.677 360.311 326.03 360.205 333.569 359.231C346.597 357.548 348.817 357.633 351.086 359.902C352.399 361.215 352.528 362.707 351.543 365.17C351.076 366.335 350.442 367.039 349.5 367.437C347.623 368.229 342.93 368.062 335.446 366.936C324.547 365.296 323.759 365.229 320.965 365.704C315.581 366.619 306.775 364.269 307.593 362.135C307.95 361.206 313.04 358.7 318.373 356.828C322.435 355.403 323.001 355.085 322.889 354.295C322.767 353.446 322.461 353.384 317.814 353.26C311.722 353.097 295.95 354.608 282.549 356.639C277.41 357.417 277.34 357.443 277.841 358.38C278.896 360.351 276.204 361.406 269.432 361.676C264.731 361.863 264.177 361.805 263.21 361.019C261.597 359.707 262.588 358.967 267.423 357.872C269.711 357.354 271.75 356.779 271.955 356.594C272.629 355.988 264.739 352.764 258.799 351.219C251.241 349.253 224.478 346.952 226.018 348.4C226.242 348.612 228.071 349.288 230.082 349.903C236.486 351.861 238.499 353.523 239.031 357.29C239.329 359.401 239.343 359.417 241.618 360.172C248.63 362.499 271.025 364.706 310.073 366.92C370.948 370.371 463.23 372.895 483.387 371.66ZM228.334 370.203C231.411 368.877 233.952 367.115 233.952 366.307C233.952 366.017 233.13 365.425 232.124 364.993C228.5 363.435 220.511 358.952 218.863 357.551C216.788 355.787 216.597 354.127 218.313 352.777C220.259 351.247 221.771 351.607 231.455 355.911C234.457 357.245 237.021 358.337 237.153 358.337C237.685 358.337 237.347 355.882 236.684 354.936C235.785 353.653 231.877 351.876 226.641 350.371C220.096 348.489 219.962 348.495 216.516 350.818C212.623 353.441 211.915 353.701 210.798 352.918C208.895 351.585 208.325 345.139 209.886 342.612C210.876 341.01 212.56 340.271 217.718 339.175C222.503 338.159 223.55 337.315 224.939 333.352C227.703 325.471 231.693 320.283 234.345 321.125C235.049 321.348 237.823 326.575 237.823 327.677C237.823 327.925 238.102 328.359 238.443 328.643C238.939 329.054 239.446 328.934 240.954 328.05C243.504 326.556 246.288 326.535 247.866 327.997C249.229 329.26 249.278 330.274 248.147 333.814C247.676 335.289 247.397 336.669 247.528 336.88C247.658 337.091 249.123 337.264 250.783 337.264C253.719 337.264 253.872 337.209 256.455 335.233C257.916 334.115 261.018 331.358 263.349 329.104L267.587 325.007L265.582 324.717C262.921 324.332 262.333 323.768 262.351 321.622C262.366 319.704 264.875 309.782 268.129 298.774C270.625 290.328 271.736 286.294 274.223 276.639C277.978 262.061 281.284 255.488 290.752 243.767C293.218 240.715 296.645 236.457 298.367 234.306C307.139 223.35 310.42 220.057 317.718 214.882C319.781 213.419 322.63 211.028 324.05 209.57C328.111 205.396 335.821 200.876 346.843 196.21C349.208 195.208 351.239 194.299 351.355 194.189C351.471 194.08 351.229 193.801 350.817 193.571C349.816 193.011 349.871 191.848 350.954 190.686C351.441 190.163 353.979 188.662 356.595 187.35C360.801 185.241 363.83 182.956 363.83 181.893C363.83 181.696 362.93 181.136 361.831 180.65C359 179.398 357.074 179.752 351.545 182.541C344.637 186.025 344.67 186.019 310.288 189.537C298.1 190.784 298.176 190.76 289.741 195.905C283.927 199.452 281.029 200.559 277.566 200.559C273.146 200.559 270.728 199.018 269.447 195.386C268.487 192.664 268.628 190.418 270.075 185.401C271.584 180.168 271.585 180.158 270.507 177.927C268.706 174.197 270.005 169.117 273.874 164.763L275.636 162.779L273.169 162.522C270.579 162.251 261.34 159.113 258.848 157.657C257.821 157.058 257.391 156.496 257.391 155.755C257.391 154.096 259.728 154.163 265.671 155.992C268.449 156.848 271.622 157.658 272.721 157.793C274.987 158.072 275.13 157.926 276.102 154.33C276.588 152.535 276.579 152.187 276.044 151.887C275.7 151.694 274.087 150.446 272.46 149.112C266.479 144.209 260.812 142.512 257.606 144.664C255.579 146.024 253.999 149.285 253.971 152.162C253.953 154.107 254.377 155.251 257.247 161.001C261.97 170.462 262.435 172.063 263.598 182.873C264.164 188.128 265.4 191.728 267.72 194.88C268.742 196.267 269.883 197.994 270.257 198.718C272.298 202.663 270.059 206.833 257.638 222.223C246.293 236.282 241.086 242.841 237.998 246.964C225.399 263.786 213.171 282.873 203.468 300.864C198.773 309.568 192.623 322.383 191.406 325.995C186.77 339.758 190.265 355.008 200.184 364.285C203.595 367.477 206.032 368.944 210.511 370.501C213.743 371.625 214.312 371.69 219.76 371.547C224.963 371.411 225.854 371.271 228.334 370.203ZM609.609 369.334C610.792 369.004 611.663 368.706 611.544 368.671C611.426 368.637 608.62 368.55 605.308 368.481C593.183 368.227 584.198 364.353 574.835 355.34C564.968 345.843 557.154 333.08 549.397 313.794C543.701 299.632 538.341 289.993 524.42 268.885C514.151 253.313 506.814 243.193 503.315 239.772C501.189 237.694 496.184 234.48 495.073 234.48C494.805 234.48 494.208 235.219 493.747 236.123C493.286 237.027 491.976 238.521 490.835 239.443C484.002 244.967 481.042 248.713 479.501 253.786C478.676 256.5 478.582 257.578 478.771 262.141C479.021 268.206 479.553 270.375 482.515 277.416C485.675 284.93 485.495 285.831 480.526 287.366C469.266 290.844 464.188 282.834 467.036 266.089C469.459 251.85 474.088 243.416 483.694 235.738C486.053 233.853 487.368 233.13 489.178 232.725C490.487 232.432 491.558 232.114 491.558 232.017C491.558 231.92 490.675 230.758 489.597 229.434C486.181 225.241 485.219 222.714 484.667 216.479C484.408 213.564 484.003 211.564 483.494 210.693C482.457 208.916 477.528 205.59 473.28 203.801C467.614 201.414 467.904 201.418 467.904 203.719C467.904 205.741 466.796 208.493 465.573 209.509C465.049 209.944 464.957 210.565 465.161 212.302C465.621 216.214 463.681 218.662 457.616 221.822C455.755 222.791 454.711 223.039 452.455 223.045C448.73 223.057 446.507 221.886 441.456 217.252C439.236 215.216 436.605 213.251 435.288 212.645C433.248 211.706 432.544 211.607 429.008 211.762C425.616 211.91 424.619 212.137 422.274 213.292C417.637 215.578 413.746 220.135 413.731 223.298C413.723 224.793 415.394 228.226 418.027 232.129C421.834 237.771 422.858 240.423 423.228 245.601C423.714 252.419 425.581 255.806 433.906 264.976C442.191 274.101 444.251 277.192 444.251 280.496C444.251 283.353 442.826 285.762 439.221 288.997C435.59 292.256 433.8 294.906 434.007 296.713C434.285 299.138 435.982 298.166 446.186 289.733C450.368 286.278 454.303 283.936 455.923 283.938C458.359 283.942 460.295 285.983 463.077 291.479C467.383 299.984 472.195 302.629 479.444 300.476C482.249 299.643 484.193 297.947 486.84 294.024C489.038 290.766 492.094 287.783 494.177 286.861C495.652 286.208 495.729 285.457 494.744 281.356C493.257 275.165 490.795 262.25 491.001 261.715C491.496 260.424 492.408 261.384 495.016 265.939C498.831 272.605 501.436 279.19 501.443 282.186C501.447 284.388 501.343 284.622 499.583 286.272C497.89 287.861 497.752 288.142 498.088 289.312C498.673 291.353 499.724 298.592 499.726 300.602C499.73 303.495 500.377 302.739 501.197 298.881C501.612 296.93 502.312 294.511 502.751 293.506C503.425 291.966 503.745 291.678 504.785 291.678C506.236 291.678 506.977 292.419 511.232 298.129C514.038 301.894 515.213 303.058 516.931 303.773C517.923 304.186 518.942 303.448 519.212 302.122C519.851 298.993 535.006 285.14 534.992 287.7C534.984 288.787 526.875 298.932 523.594 301.956C522.531 302.936 521.662 303.88 521.662 304.055C521.662 304.23 525.354 308.048 529.866 312.54C539.496 322.125 544.087 327.313 550.114 335.421C562.244 351.739 580.77 365.315 596.062 369.09C599.97 370.055 606.589 370.174 609.609 369.334ZM498.833 367.093C498.932 367.008 497.964 366.936 496.683 366.933C495.401 366.93 490.096 366.545 484.892 366.078C474.765 365.168 470.054 365.011 471.596 365.635C474.416 366.776 487.711 367.816 494.783 367.449C496.912 367.339 498.734 367.179 498.833 367.093ZM375.317 363.992C385.453 360.577 389.764 359.805 395.02 360.467C399.878 361.078 404.256 360.493 404.256 359.228C404.256 358.08 395.454 357.293 389.45 357.904C384.517 358.405 383.08 358.761 375.657 361.319C369.319 363.503 364.68 364.712 361.276 365.068C359.024 365.303 358.65 365.237 358.388 364.556C358.164 363.971 358.557 363.356 359.939 362.13C361.75 360.523 361.7 360.017 359.824 360.959C357.807 361.971 354.801 364.167 354.8 364.628C354.798 365.817 359.948 366.951 364.475 366.759C366.798 366.66 369.275 366.028 375.317 363.992ZM615.584 366.244C616.268 366.085 617.856 364.918 619.112 363.652C631.147 351.52 631.956 325.076 620.905 305.04C617.826 299.458 612.182 292.359 599.337 277.916C593.642 271.511 590.971 268.61 575.821 252.367C551.36 226.142 542.406 216.262 538.761 211.472C533.851 205.02 529.504 194.13 525.721 178.803C523.688 170.564 523.119 165.859 523.747 162.452C524.018 160.983 525.286 157.283 526.565 154.231C527.845 151.18 529.02 147.882 529.177 146.904C529.431 145.321 529.315 144.957 528.124 143.6C524.734 139.74 509.266 131.766 499.16 128.67C495.765 127.63 495.263 127.826 494.553 130.462C493.974 132.612 494.395 134.823 495.597 135.953C496.118 136.443 498.954 137.699 501.9 138.746C511.24 142.065 514.158 143.675 517.282 147.236C520.054 150.395 521.82 155.955 520.85 158.467C520.266 159.978 518.912 160.017 517.951 158.55C516.283 156.005 502.948 147.996 494.107 144.229C485.99 140.771 482.934 140.466 480.267 142.85C479.032 143.953 478.89 144.343 478.743 147.02C478.477 151.872 479.355 152.706 488.117 155.928C489.236 156.339 492.66 158.741 496.235 161.623C499.635 164.364 503.206 166.885 504.17 167.225C506.297 167.976 507.47 168.975 507.47 170.038C507.47 170.989 506.402 171.051 504.889 170.186C504.298 169.848 503.714 169.565 503.591 169.556C503.468 169.549 503.439 170.967 503.527 172.71C503.679 175.718 503.623 175.952 502.417 177.302C501.213 178.649 500.999 178.721 498.323 178.681C496.171 178.647 494.187 178.182 489.98 176.723C478.987 172.908 471.471 170.406 467.044 169.088C464.561 168.348 460.853 166.864 458.805 165.791C455.746 164.188 454.823 163.888 453.633 164.112C450.572 164.686 447.261 168.708 447.261 171.853C447.261 173.086 447.609 173.645 449.304 175.139C451.878 177.406 452.531 177.738 458.974 180.051C474.155 185.502 494.604 194.569 495.619 196.3C495.924 196.819 495.899 197.196 495.538 197.557C495.137 197.958 494.437 197.91 492.393 197.342C486.26 195.637 471.641 189.352 460.155 183.483C456.721 181.728 453.71 180.293 453.462 180.293C452.908 180.293 450.978 182.326 450.324 183.597C448.74 186.682 450.706 189.07 458.228 193.196C462.475 195.525 465.466 197.64 466.301 198.902C466.649 199.429 467.782 200.117 468.817 200.431C472.069 201.417 477.364 203.903 480.412 205.875C484.559 208.558 485.477 210.12 486.009 215.397C486.734 222.603 487.487 224.495 491.573 229.373C493.604 231.797 494.663 232.675 496.423 233.39C499.748 234.742 503.337 237.274 505.725 239.953C509.943 244.685 524.705 265.956 533.117 279.421C541.645 293.074 547.059 303.394 550.704 312.946C557.511 330.784 567.061 346.172 577.049 355.395C582.551 360.476 590.507 364.826 596.492 366.026C597.793 366.287 599.244 366.589 599.717 366.698C600.915 366.975 614.065 366.598 615.584 366.244ZM348.843 366.043C350.051 365.397 351.07 362.845 350.526 361.829C349.207 359.365 346.446 359.122 335.661 360.522C331.877 361.013 327.118 361.448 325.086 361.489C320.785 361.575 319.739 361.073 320.131 359.114C320.264 358.45 320.207 357.907 320.005 357.907C319.355 357.907 313.96 360.034 311.68 361.19C309.688 362.199 309.546 362.363 310.231 362.864C311.605 363.869 316.486 364.432 321.246 364.136C324.969 363.904 326.987 364.046 332.651 364.942C341.737 366.379 341.66 366.369 345.043 366.444C346.655 366.478 348.365 366.299 348.843 366.043ZM420.506 364.473C426.521 363.357 427.444 363.302 439.198 363.35L451.562 363.401V362.432C451.562 360.918 449.992 359.264 448.241 358.936C446.232 358.559 434.844 359.424 427.909 360.48C424.952 360.931 420.463 361.432 417.932 361.595C413.475 361.883 413.318 361.927 412.923 363.017C412.698 363.636 412.378 364.481 412.21 364.895C411.784 365.945 412.877 365.89 420.506 364.473ZM506.917 364.708C509.808 363.329 507.723 358.614 502.443 354.592C500.891 353.41 500.779 353.392 495.245 353.454C489.468 353.519 478.79 355.115 466.826 357.702C459.423 359.302 457.777 360.249 457.301 363.183L457.056 364.695L459.147 364.24C463.672 363.256 481.264 363.824 494.998 365.397C497.913 365.73 505.719 365.279 506.917 364.708ZM236.494 362.932C236.988 361.911 237.393 360.886 237.393 360.654C237.393 360.227 223.515 353.98 221.417 353.463C220.621 353.266 219.975 353.429 219.271 353.998C218.27 354.809 218.268 354.821 219.097 355.736C219.556 356.243 221.005 357.307 222.319 358.1C224.926 359.675 234.854 364.784 235.312 364.786C235.468 364.787 236 363.953 236.494 362.932ZM512.201 360.759C512.201 358.587 510.612 356.575 507.78 355.159C506.414 354.476 505.193 354.02 505.067 354.146C504.942 354.271 505.625 355.217 506.586 356.248C509.031 358.869 510.217 361.43 509.906 363.418L509.658 365.003L510.929 363.598C511.803 362.633 512.201 361.745 512.201 360.759ZM274.7 359.602C276.204 359.076 276.476 358.574 275.467 358.187C274.222 357.709 265.347 359.585 265.347 360.326C265.347 360.764 273.096 360.164 274.7 359.602ZM215.584 349.536C217.891 347.924 218.392 347.378 218.096 346.801C217.375 345.397 218.299 344.25 221.272 342.854C224.512 341.334 227.083 341.025 236.963 340.972C245.509 340.926 246.84 340.824 248.359 340.103L250.079 339.286L248.56 339.003C246.116 338.548 245.868 338.245 246.126 336.025C246.253 334.933 246.655 333.112 247.02 331.98C247.648 330.028 247.639 329.878 246.838 329.077C245.671 327.909 244.227 328.019 241.48 329.485C237.955 331.366 237.718 331.204 235.074 325.115C234.459 323.699 233.727 322.642 233.362 322.642C231.832 322.642 227.207 330.265 226.184 334.472C225.264 338.258 223.788 339.303 217.088 340.913C213.359 341.809 212.47 342.191 211.428 343.342C210.28 344.611 210.207 344.898 210.405 347.362C210.638 350.269 211.364 352.065 212.179 351.752C212.467 351.641 213.999 350.644 215.584 349.536ZM425.114 350.194C427.006 349.739 429.909 348.879 431.564 348.281C446.466 342.903 461.278 342.903 469.269 348.281C470.458 349.081 471.599 349.736 471.803 349.736C472.525 349.736 473.137 347.911 473.157 345.696C473.194 341.655 473.379 341.782 467.372 341.762C462.452 341.747 461.792 341.64 457.521 340.177C455.004 339.314 449.585 337.024 445.48 335.088C431.359 328.427 427.617 327.102 421.673 326.66C413.926 326.083 405.792 330.07 403.408 335.61C401.808 339.33 402.885 343.278 406.355 346.414C411.082 350.684 417.601 351.998 425.114 350.194ZM483.172 349.772C488.375 348.658 490.044 348.504 502.438 347.998C513.22 347.558 518.83 346.841 520.61 345.674C521.146 345.323 521.81 344.353 522.085 343.52C523.108 340.422 520.229 334.499 516.907 332.864C514.995 331.924 506.087 330.383 502.56 330.383C497.111 330.383 492.469 332.654 486.64 338.172C481.752 342.798 476.416 349.932 477.232 350.749C477.376 350.893 477.9 350.918 478.397 350.806C478.894 350.694 481.043 350.228 483.172 349.772ZM368.838 347.966C371.838 347.04 376.913 344.668 378.909 343.259C379.515 342.831 383.096 340.759 386.865 338.656C394.448 334.424 402.191 329.546 401.347 329.532C400.677 329.52 391.744 333.996 384.341 338.051C381.312 339.71 378.235 341.276 377.504 341.531C376.735 341.799 372.761 341.995 368.088 341.995C359.763 341.995 357.149 342.306 353.093 343.779C351.801 344.248 349.213 344.998 347.343 345.444C345.473 345.891 343.863 346.337 343.765 346.434C343.667 346.532 345.318 346.748 347.433 346.913C349.548 347.078 352.7 347.566 354.437 347.997C359.002 349.13 365.108 349.116 368.838 347.966ZM320.394 347.585C327.135 347.118 333.328 346.716 334.156 346.693L335.661 346.651L334.371 346.262C332.456 345.683 319.068 344.24 310.718 343.711C306.697 343.457 294.978 343.103 284.677 342.925C266.542 342.61 265.899 342.57 264.447 341.674C262.494 340.466 261.046 337.862 261.046 335.557C261.046 334.564 260.898 333.816 260.718 333.895C259.806 334.294 255.931 337.538 255.91 337.921C255.732 341.12 271.004 345.914 287.925 347.971C293.322 348.627 307.879 348.454 320.394 347.585ZM343.629 344.55C345.633 344.299 348.918 343.543 350.928 342.87C357.487 340.673 358.427 340.541 367.701 340.515L376.517 340.488L385.118 335.886C389.849 333.355 397.106 329.654 401.245 327.661C408.987 323.935 410.277 322.922 410.277 320.565C410.277 318.015 405.332 314.897 400.769 314.568C398.158 314.379 397.871 314.444 397.221 315.372C396.833 315.927 396.514 317.064 396.514 317.898C396.514 320.072 394.309 324.461 392.541 325.81C391.474 326.624 390.542 326.941 389.22 326.941C387.217 326.941 386.445 326.322 382.292 321.382C380.87 319.69 380.131 319.124 379.606 319.326C378.401 319.788 378.787 321.466 380.602 323.663C382.342 325.768 382.566 326.339 381.994 327.204C381.044 328.64 374.64 330.246 371.53 329.829C367.761 329.323 366.582 327.176 367.219 321.973C367.738 317.732 367.393 317.05 364.726 317.05C362.697 317.05 362.503 317.155 360.803 319.17C359.82 320.337 358.742 321.396 358.408 321.524C357.275 321.959 355.87 321.026 352.398 317.53C350.491 315.61 348.733 314.04 348.49 314.04C347.799 314.04 343.187 319.058 343.187 319.809C343.187 320.179 344.155 321.55 345.338 322.856C347.002 324.694 347.488 325.55 347.488 326.646C347.488 331.661 337.642 341.418 334.586 339.433C334.055 339.087 333.937 337.698 333.92 331.58C333.899 323.946 333.753 323.13 331.926 320.433C330.066 317.688 324.242 316.597 320.807 318.349C319.87 318.827 319.104 319.325 319.104 319.456C319.104 319.587 320.168 320.948 321.469 322.482C324.185 325.683 324.511 327.136 322.671 327.835C321.167 328.407 319.129 328.043 313.803 326.249C311.422 325.447 309.29 324.791 309.066 324.791C308.841 324.791 309.653 325.844 310.87 327.131C313.262 329.66 313.562 330.763 312.223 332.102C310.773 333.552 308.479 333.211 302.098 330.597C298.922 329.296 295.928 328.232 295.444 328.232C294.212 328.232 293.994 329.15 294.779 331.029C295.625 333.053 295.633 334.425 294.805 335.113C293.335 336.333 290.646 336.071 282.119 333.878C272.562 331.421 269.331 330.947 266.795 331.629C262.984 332.656 261.755 334.852 263.243 337.975C264.829 341.306 264.386 341.243 288.785 341.618C310.407 341.95 313.238 342.103 327.195 343.69C340.16 345.164 339.131 345.112 343.629 344.55ZM476.691 337.946C477.654 337.381 480.473 335.428 482.957 333.607C490.505 328.072 494.505 326.531 501.36 326.519C507.116 326.508 512.353 327.821 516.169 330.23C518.287 331.567 531.208 334.67 535.854 334.958C539.013 335.153 539.121 335.126 541.122 333.626C544.547 331.059 543.904 329.732 538.004 327.189C536.467 326.527 533.66 325.157 531.768 324.146C529.876 323.136 526.876 321.761 525.102 321.091C522.092 319.956 521.445 319.874 515.401 319.861L508.925 319.845L505.51 317.617C503.631 316.392 501.402 315.264 500.556 315.111C498.603 314.757 495.236 316.083 489.247 319.564C486.852 320.957 484.152 322.335 483.247 322.628C481.177 323.296 478.695 322.939 475.672 321.539C472.442 320.042 472.135 320.26 472.943 323.468C473.542 325.848 473.538 326.167 472.892 327.153C472.359 327.967 471.813 328.232 470.669 328.232C468.68 328.232 467.115 327.389 462.993 324.098C457.436 319.662 456.245 319.346 451.935 321.16C450.499 321.764 448.914 322.2 448.415 322.127C447.162 321.946 445.807 319.774 445.169 316.925C444.875 315.611 444.342 314.294 443.985 313.998C443.039 313.212 439.141 313.44 435.082 314.518C433.147 315.031 431.245 315.614 430.855 315.813C429.373 316.567 421.59 318.332 419.738 318.334C415.921 318.337 414.612 317.666 410.841 313.776C408.719 311.588 406.579 309.817 405.459 309.321C402.275 307.913 397.172 307.545 387.252 308.009C375.523 308.557 354.477 308.555 342.573 308.005C331.715 307.503 328.335 307.805 322.226 309.822C317.228 311.473 313.328 313.691 306.936 318.516C301.894 322.322 300.132 323.06 299.272 321.727C298.145 319.979 295.695 307.577 294.816 299.167C294.422 295.402 293.994 291.451 293.865 290.386L293.629 288.451L292.154 293.182C290.428 298.72 287.799 305.311 285.668 309.446C282.468 315.655 278.264 320.047 273.088 322.591C271.6 323.322 269.576 324.945 267.636 326.96L264.549 330.167L269.571 330.193C274.142 330.216 275.274 330.4 282.188 332.236C289.673 334.224 292.984 334.683 293.526 333.807C293.677 333.561 293.563 332.431 293.272 331.295C291.844 325.724 293.983 325.456 304.419 329.897C308.11 331.468 311.363 331.739 311.363 330.476C311.363 330.054 310.291 328.651 308.982 327.358C306.445 324.853 306.037 323.402 307.799 323.151C308.323 323.077 311.169 323.803 314.124 324.764C321.691 327.226 323.835 327.031 320.832 324.155C320.127 323.479 319.047 322.201 318.433 321.314C317.015 319.268 317.467 318.218 320.323 316.916C324.711 314.916 330.781 316.228 333.313 319.723C334.984 322.029 335.446 324.672 335.446 331.909C335.446 336.88 335.564 338.124 336.035 338.124C337.246 338.124 342.359 333.669 344.045 331.144C346.422 327.585 346.383 326.184 343.832 323.457C340.84 320.258 341.099 318.662 345.253 314.697C348.389 311.705 349.5 312.025 354.545 317.373C355.939 318.852 357.318 320.061 357.609 320.061C357.899 320.061 358.666 319.368 359.313 318.52C361.823 315.229 365.814 314.265 367.975 316.426C369.054 317.505 369.066 317.592 368.768 321.969C368.483 326.137 368.522 326.473 369.373 327.324C370.426 328.378 372.709 328.509 377 327.762C380.821 327.096 381.1 326.565 378.927 324.096C376.805 321.686 376.583 319.895 378.213 318.363C379.836 316.839 381.045 317.436 384.298 321.368C387.243 324.928 388.13 325.652 389.547 325.652C391.764 325.652 394.644 321.336 395.093 317.34C395.432 314.324 395.817 313.725 397.794 313.133C401.003 312.171 407.394 314.208 410.185 317.082C411.762 318.706 412.222 319.966 411.82 321.567C411.466 322.976 411.772 322.952 416.739 321.177C424.889 318.264 429.201 318.218 436.344 320.966C441.205 322.837 443.774 324.283 458.658 333.524C463.604 336.594 467.864 338.553 469.613 338.56C470.447 338.564 471.42 338.763 471.775 339.002C472.655 339.596 474.591 339.18 476.691 337.946ZM471.576 326.487C471.731 326.236 471.606 324.77 471.301 323.229C470.39 318.644 471.355 317.99 476.015 320.035C480.36 321.942 481.878 321.82 486.612 319.185C494.945 314.546 496.696 313.832 499.738 313.829C502.429 313.826 502.701 313.928 506.397 316.322L510.251 318.818L513.053 318.472C516.847 318.004 520.208 318.164 523.276 318.959C525.989 319.662 531.813 322.176 533.668 323.446C534.279 323.864 535.843 324.645 537.144 325.182C538.445 325.719 539.751 326.259 540.047 326.381C541.747 327.087 539.529 324.538 530.426 315.323L520.268 305.04L518.384 305.298C515.693 305.667 513.897 304.263 509.397 298.271C506.984 295.059 505.459 293.392 505.013 293.479C504.093 293.659 503.314 296.01 502.047 302.429C500.496 310.284 500.238 311.108 499.382 310.945C498.747 310.823 498.617 309.899 498.366 303.714C498.208 299.814 497.765 295.172 497.382 293.398C497 291.624 496.573 289.64 496.434 288.99C496.116 287.504 495.794 287.511 493.571 289.054C491.325 290.612 490.001 292.051 487.791 295.333C484.489 300.238 481.508 302.158 476.388 302.68C469.825 303.349 466.025 300.436 460.985 290.874C458.923 286.96 457.652 285.655 455.912 285.661C454.417 285.665 451.208 287.579 447.262 290.817C439.164 297.461 437.086 299.016 435.694 299.475C434.313 299.931 434.128 299.881 433.206 298.809C431.151 296.42 432.452 293.476 437.947 288.079C445.228 280.927 444.974 279.73 433.437 266.814C424.154 256.422 422.372 253.251 421.817 246.132C421.414 240.972 420.462 238.509 416.737 232.989C411.08 224.605 410.994 220.859 416.34 215.597C421.691 210.329 430.026 208.541 436.14 211.348C437.439 211.945 440.025 213.859 442.065 215.734C449.79 222.836 453.077 223.276 460.708 218.226C462.673 216.925 463.604 215.314 463.604 213.213C463.604 211.468 463.296 211.378 460.594 212.332C454.056 214.638 443.932 211.492 415.762 198.4C410.618 196.01 406.134 194.054 405.796 194.054C405.459 194.054 404.95 194.78 404.666 195.667C403.319 199.872 398.565 205.727 394.632 208.026C392.002 209.564 387.52 210.827 384.697 210.826C381.803 210.825 374.614 209.044 371.055 207.445C367.001 205.625 362.183 202.266 359.763 199.575C357.464 197.017 356.849 195.807 357.462 195.045C358.026 194.344 358.827 194.688 366.145 198.771C373.114 202.659 379.007 205.094 382.393 205.483C386.421 205.947 390.913 203.666 398.758 197.177C400.628 195.63 402.001 194.212 401.809 194.027C401.617 193.842 398.267 192.724 394.364 191.543C385.945 188.996 380.226 187.028 374.367 184.662C372.001 183.707 369.304 182.865 368.373 182.791C366.795 182.667 366.66 182.746 366.404 183.957C365.827 186.685 363.12 189.278 358.343 191.677L356.132 192.787L356.433 195.034C356.837 198.05 356.812 210.2 356.355 232.759C355.941 253.177 356.155 256.386 358.461 264.356C360.607 271.775 361.347 275.238 361.405 278.131C361.515 283.683 360.433 285.089 357.24 283.543C355.187 282.549 351.626 279.148 341.606 268.61C333.791 260.39 329.814 256.937 326.32 255.337C324.409 254.462 323.711 254.33 322.81 254.673C320.913 255.394 321.338 256.951 325.171 263.312C331.391 273.636 333.483 278.576 333.214 282.303C333.021 284.972 331.997 284.968 329.415 282.288C327.154 279.943 320.079 269.45 315.446 261.573C311.388 254.673 311.401 254.692 310.84 254.692C310.016 254.692 306.059 259.036 303.704 262.525C300.982 266.559 297.512 273.415 296.459 276.84C295.796 278.995 295.672 280.801 295.703 287.806C295.743 296.969 296.416 303.08 298.449 312.732C299.733 318.828 300.366 320.922 300.923 320.919C301.107 320.918 303.192 319.447 305.557 317.651C313.033 311.974 316.285 310.108 321.91 308.271C328.056 306.264 330.701 306.1 348.109 306.652C360.17 307.034 368.087 307.035 381.312 306.653C394.997 306.259 399.288 306.265 401.558 306.684C406.318 307.561 408.22 308.621 411.397 312.171C414.941 316.131 416.05 316.734 419.708 316.686C422.644 316.648 423.326 316.492 432.209 313.834C435.166 312.949 438.94 312.129 440.596 312.012C444.448 311.739 445.63 312.521 446.415 315.865C447.139 318.941 447.986 320.491 448.946 320.491C449.387 320.491 450.592 320.108 451.623 319.64C453.839 318.635 456.905 318.528 458.928 319.386C459.726 319.724 461.617 321.005 463.132 322.232C468.207 326.345 470.842 327.674 471.576 326.487ZM270.864 321.055C276.477 314.629 283.365 304.235 285.148 299.501C286.607 295.627 287.35 291.366 287.347 286.898C287.344 281.687 286.934 280.138 283.969 274.119C281.164 268.424 280.639 265.215 281.838 261.09C282.693 258.149 284.595 255.523 285.766 255.665C286.669 255.774 286.785 256.164 288.296 264.215C289.384 270.014 290.503 272.493 292.96 274.55C295.038 276.29 295.073 276.302 295.332 275.313C295.875 273.236 300.161 265.082 302.699 261.298C304.148 259.135 306.416 256.377 307.738 255.169C310.607 252.547 311.908 252.331 312.996 254.295C317.139 261.773 323.862 272.463 327.755 277.761C331.818 283.29 332.514 283.575 331.408 279.257C330.579 276.022 328.542 271.914 324.424 265.174C319.67 257.392 318.945 254.371 321.589 253.35C323.56 252.588 326.343 253.256 329.4 255.225C332.133 256.984 337.257 261.9 349.938 274.93C355.754 280.905 358.664 283.227 359.405 282.483C359.592 282.296 359.742 280.369 359.738 278.202C359.735 274.871 359.455 273.294 357.939 268.024C354.269 255.268 354.297 255.752 354.969 217.449C355.258 201.005 355.23 195.396 354.861 195.168C353.719 194.462 336.257 202.401 330.315 206.326C328.761 207.353 326.405 209.328 325.079 210.715C323.753 212.102 320.657 214.673 318.198 216.427C312.71 220.344 307.436 225.343 303.686 230.179C302.127 232.19 298.581 236.579 295.805 239.933C282.845 255.589 279.653 261.517 275.585 277.486C274.41 282.098 271.832 291.484 269.856 298.344C264.313 317.582 263.371 321.795 264.379 322.83C264.556 323.012 265.766 323.056 267.067 322.928C269.135 322.723 269.612 322.488 270.864 321.055ZM276.84 318.355C282.34 313.975 287.313 304.507 291.178 291.054C292.417 286.745 292.986 283.84 293.162 280.926L293.409 276.841L291.583 275.381C288.992 273.311 287.991 270.665 285.99 260.606C285.72 259.246 285.352 258.133 285.172 258.133C284.993 258.133 284.378 259.134 283.805 260.357C283.017 262.041 282.77 263.277 282.787 265.455C282.809 268.073 283.031 268.767 285.272 273.23C288.349 279.356 289.183 282.957 288.846 288.667C288.298 297.944 284.847 305.733 276.553 316.406C273.193 320.73 273.263 321.203 276.84 318.355ZM525.534 297.697C526.523 296.515 527.206 295.548 527.052 295.548C526.603 295.548 522.062 299.961 521.575 300.871C520.813 302.295 523.463 300.17 525.534 297.697ZM480.761 285.741C483.723 284.599 483.742 284.345 481.307 278.552C477.82 270.258 477.162 267.457 477.172 260.929C477.179 256.145 477.326 254.934 478.194 252.542C479.679 248.448 481.726 245.628 486.091 241.663C492.314 236.011 492.848 235.463 492.848 234.738C492.848 233.931 490.183 233.776 488.342 234.476C486.667 235.113 481.691 239.217 479.049 242.141C472.528 249.357 468.524 260.239 468.016 272.129C467.677 280.076 468.946 284.15 472.269 285.788C474.142 286.71 478.309 286.687 480.761 285.741ZM499.268 284.524C500.445 283.027 500.395 282.034 498.929 277.808C497.011 272.276 493.278 265.234 493.278 267.147C493.278 267.558 496.393 282.231 497.002 284.689C497.321 285.975 498.175 285.912 499.268 284.524ZM392.338 207.432C393.828 206.676 396.073 205.074 397.326 203.872C399.509 201.779 402.535 197.592 402.535 196.665C402.535 196.421 400.275 197.975 397.512 200.118C391.127 205.067 388.181 206.586 384.441 206.857C379.938 207.182 375.229 205.53 365.506 200.213C362.669 198.662 360.253 197.488 360.137 197.604C359.817 197.924 364.168 201.708 366.841 203.432C369.781 205.329 374.093 207.176 378.148 208.274C380.504 208.912 382.252 209.076 385.438 208.96C389.133 208.826 389.95 208.645 392.338 207.432ZM465.978 205.919C466.489 204.581 466.574 203.695 466.295 202.62C465.88 201.016 465.048 200.653 461.561 200.556C459.106 200.488 459.158 201.173 461.922 205.384C464.365 209.106 464.741 209.156 465.978 205.919ZM488.547 194.027C486.341 192.506 468.861 185.214 468.437 185.637C468.196 185.879 472.067 187.683 481.021 191.5C487.469 194.249 490.2 195.165 488.547 194.027ZM357.353 190.459C360.238 189.053 365.141 184.913 364.587 184.351C364.412 184.173 363.803 184.531 363.234 185.145C362.665 185.759 360.089 187.32 357.509 188.614C354.929 189.907 352.542 191.299 352.205 191.706C351.637 192.389 351.705 192.422 353.087 192.127C353.91 191.952 355.83 191.201 357.353 190.459ZM302.756 181.655C304.368 180.457 304.371 178.104 302.766 172.616C299.702 162.136 298.382 158.337 296.383 154.249C293.36 148.067 290.966 145.934 287.732 146.54C285.356 146.986 281.151 149.097 279.834 150.504L278.624 151.797L279.328 153.948C279.895 155.683 279.94 156.438 279.558 157.856C279.298 158.823 278.893 159.732 278.66 159.876C277.806 160.404 278.723 160.902 279.797 160.493C282.619 159.42 285.352 160.633 286.768 163.586C287.262 164.614 288.058 167.77 288.538 170.599C289.887 178.553 291.662 181.369 296.027 182.485C298.043 183 301.524 182.571 302.756 181.655ZM314.712 174.276C319.557 172.077 318.611 166.148 310.795 149.711C309.714 147.438 308.695 145.045 308.532 144.392C308.247 143.26 308.146 143.218 306.25 143.47C303.738 143.804 297.863 146.708 297.679 147.707C297.603 148.117 298.592 150.245 299.877 152.438C303.055 157.86 303.857 159.818 304.903 164.706C306.215 170.841 306.959 172.818 308.416 174.044C310.001 175.378 312.113 175.456 314.712 174.276ZM329.898 160.564C330.793 159.458 331.037 155.651 330.286 154.489C329.987 154.027 329.867 154.481 329.862 156.092C329.856 158.058 329.709 158.435 328.69 159.102C327.89 159.626 326.697 159.862 324.884 159.857C322.667 159.85 321.993 159.659 320.679 158.657C318.637 157.099 318.349 156.495 317.6 152.198C316.674 146.887 315.405 143.885 313.556 142.628C312.019 141.584 310.503 141.256 310.503 141.968C310.503 142.177 310.987 142.666 311.579 143.054C313.799 144.508 316.556 150.465 318.05 157.035C318.424 158.677 318.995 160.241 319.319 160.51C320.419 161.423 322.319 161.768 325.704 161.671C328.665 161.587 329.18 161.451 329.898 160.564ZM276.914 159.42C277.857 158.345 278.248 157.463 278.248 156.409C278.248 154.41 277.643 154.524 277.008 156.641C275.964 160.126 274.414 160.271 266.064 157.664C261.729 156.31 259.238 155.834 259.888 156.485C260.04 156.636 262.636 157.692 265.658 158.831C269.537 160.292 271.803 160.907 273.366 160.921C275.372 160.939 275.704 160.797 276.914 159.42ZM327.949 157.624C328.58 156.993 328.648 156.299 328.43 152.71C328.003 145.7 326.121 139.71 323.569 137.238C322.207 135.92 321.832 135.784 319.617 135.807C318.255 135.822 316.596 136.136 315.879 136.516C314.398 137.301 312.217 139.231 312.237 139.739C312.244 139.927 313.085 140.588 314.106 141.207C316.466 142.638 317.609 144.943 318.713 150.496C319.764 155.786 320.052 156.443 321.783 157.499C323.579 158.594 326.912 158.661 327.949 157.624ZM315.237 152.898C314.205 149.135 312.166 145.258 310.85 144.553C310.362 144.292 310.043 144.266 310.13 144.495C311.132 147.117 315.903 156.995 316.011 156.672C316.09 156.435 315.742 154.737 315.237 152.898ZM357.809 152.587C364.798 151.097 380.76 145.175 393.504 139.345C405.631 133.798 412.324 130.007 417.71 125.636C426.331 118.64 438.044 114.007 448.767 113.351C451.132 113.207 453.337 112.946 453.667 112.772C454.536 112.312 446.546 110.93 444.854 111.248C444.08 111.393 442.181 112.086 440.633 112.787C437.169 114.358 435.344 114.455 434.841 113.096C434.387 111.869 434.923 106.858 436.297 99.478C436.888 96.305 437.308 93.6454 437.231 93.5678C437.153 93.4903 435.385 95.1688 433.302 97.298L429.513 101.169L429.787 103.208C429.953 104.441 430.581 105.988 431.374 107.121C432.096 108.152 432.628 109.397 432.556 109.888C432.306 111.582 428.483 111.661 425.984 110.024C424.609 109.124 422.827 106.035 422.053 103.21C421.234 100.225 421.227 92.1636 422.038 86.9661C423.486 77.6962 423.324 73.9013 421.176 66.7643C418.239 57.0077 410.924 47.2807 401.244 40.2607C397.389 37.4652 394.98 36.2311 389.472 34.2301C385.551 32.8056 383.883 31.962 382.751 30.8319C381.34 29.4223 381.248 29.1613 381.285 26.6473C381.308 25.1726 381.478 22.3926 381.665 20.4694C381.937 17.6839 381.864 16.5532 381.304 14.9096C379.751 10.3527 380.683 7.03447 383.918 5.60358C386.186 4.60042 388.416 4.73828 392.467 6.13225C398.389 8.16945 415.013 18.8924 423.284 26.009C424.644 27.1793 425.757 27.9315 425.757 27.6807C425.757 26.9028 421.06 20.2586 418.114 16.87C412.138 9.99546 405.772 5.45894 398.768 3.08457C394.908 1.77591 394.137 1.66156 388.987 1.63348C385.54 1.61458 382.489 1.83191 381.031 2.19981C378.529 2.83118 373.967 4.94037 373.512 5.67636C373.364 5.91674 373.751 6.78057 374.373 7.59585C376.993 11.0306 378.459 18.1215 377.649 23.438C377.388 25.1476 376.982 27.2264 376.745 28.0575C375.999 30.686 373.581 34.2006 371.374 35.8654C369.518 37.2652 368.295 37.7046 361.912 39.2633C350.433 42.0669 347.075 43.5493 342.637 47.7731C338.163 52.031 331.756 62.8312 328.557 71.5061C326.644 76.6956 324.887 83.8776 323.986 90.1952C323.19 95.772 323.15 99.1673 323.552 126.535L323.618 131.051H322.137C319.23 131.051 318.33 127.776 316.999 112.343C315.695 97.2276 315.516 92.1208 316.064 85.7447C317.477 69.3185 321.811 58.7187 330.687 49.9846C336.614 44.1529 339.827 42.2312 357.808 33.7619C360.291 32.5921 362.952 31.1023 363.72 30.4512C365.484 28.9553 366.244 26.4029 366.84 19.959C367.446 13.4147 367.981 11.051 369.459 8.38537L370.707 6.13657L369.686 5.46759C365.883 2.97605 358.158 3.5057 347.985 6.95562C338.038 10.3283 334.254 12.5079 329.174 17.7895C320.974 26.3143 314.386 38.2603 309.285 53.8552C306.506 62.3502 305.004 69.3709 303.606 80.3887C301.935 93.5632 301.387 96.9402 299.569 105.272C297.775 113.495 295.418 122.463 292.468 132.288C291.269 136.279 290.289 139.908 290.289 140.351C290.289 141.368 292.408 141.418 297.385 140.519C299.277 140.177 302.873 139.89 305.376 139.882L309.927 139.867L311.272 138.194C313.232 135.755 316.464 134.276 319.833 134.276C322.489 134.276 322.59 134.319 324.638 136.319C326.886 138.513 328.26 141.479 329.103 145.956C329.51 148.12 329.645 148.337 330.315 147.919C330.914 147.545 331.847 147.806 334.869 149.195C339.038 151.111 342.02 152.159 344.938 152.731C347.929 153.318 354.741 153.242 357.809 152.587ZM480.161 132.73C480.871 132.392 482.806 131.023 484.462 129.687C488.547 126.392 490.637 125.504 493.593 125.809C496.767 126.137 496.398 125.308 492.821 124.077C489.713 123.008 485.485 122.807 483.821 123.649C483.232 123.947 482.057 125.337 481.209 126.737C477.935 132.151 476.208 132.038 472.379 126.163C469.325 121.477 466.274 118.324 463.567 117.057C462.406 116.513 461.361 116.163 461.245 116.279C460.857 116.666 465.941 125.732 467.904 128.156C472.258 133.529 475.748 134.832 480.161 132.73ZM322.402 127.009C321.533 118.693 321.175 106.154 321.62 99.6157C322.928 80.3846 326.893 67.7091 335.96 53.7684C342.021 44.4486 346.609 41.4639 359.857 38.2212C368.522 36.1002 370.876 35.0248 372.866 32.2781C375.307 28.9078 376.033 26.2365 376.061 20.5254C376.08 16.6343 375.896 14.7978 375.31 13.0604C374.444 10.4887 372.642 7.4086 372.005 7.4086C371.529 7.4086 369.92 10.4068 369.358 12.3421C369.15 13.0584 368.695 16.5946 368.347 20.2002C367.723 26.6639 367.087 29.1547 365.641 30.7865C364.365 32.2273 360.781 34.2765 355.444 36.616C343.614 41.8018 337.009 45.85 331.538 51.2686C326.565 56.1947 323.507 61.1521 320.923 68.477C317.53 78.0991 316.718 88.8403 318.031 106.752C319.276 123.739 320.346 129.545 322.228 129.545C322.507 129.545 322.57 128.62 322.402 127.009ZM441.671 110.675C444.064 109.57 446.987 109.518 452.053 110.489C454.138 110.889 455.967 111.092 456.118 110.941C456.526 110.534 454.072 106.738 452.774 105.769C451.243 104.626 448.849 104.733 445.968 106.075C441.635 108.092 439.111 107.225 438.408 103.479C438.257 102.672 437.982 101.919 437.798 101.805C437.371 101.541 435.889 111.226 436.224 112.097C436.5 112.818 437.715 112.501 441.671 110.675ZM464.644 111.652C465.624 111.276 465.481 110.015 464.3 108.611C462.309 106.246 460.571 102.125 457.348 92.1303C448.843 65.7527 444.563 55.4066 437.784 44.839C434.764 40.1311 434.036 39.6652 435.465 43.354C440.381 56.0467 442.966 66.7645 442.958 74.4214C442.95 80.0645 441.397 86.2563 439.003 90.1741C437.909 91.9646 437.784 92.4353 438.218 93.1314C438.503 93.5867 438.903 95.7305 439.108 97.8953C439.531 102.371 440.27 104.96 441.309 105.609C441.848 105.944 442.748 105.743 444.965 104.79C447.069 103.887 448.601 103.527 450.345 103.527C453.592 103.527 454.078 103.98 458.306 110.945C458.808 111.773 459.26 111.913 461.428 111.913C462.823 111.913 464.27 111.796 464.644 111.652ZM430.919 109.538C430.919 109.415 430.395 108.522 429.754 107.553C428.878 106.229 428.545 105.115 428.415 103.062L428.241 100.333L431.894 96.5355C438.962 89.1881 441.223 83.8526 441.233 74.4979C441.244 64.3873 437.84 51.7999 431.444 38.2919C429.525 34.2379 428.995 33.5244 425.275 29.98C420.358 25.2946 414.206 20.6557 405.437 15.0222C397.634 10.0084 393.931 8.05082 390.618 7.18803C386.067 6.00273 383.358 6.62884 382.334 9.10254C381.75 10.5117 381.823 11.2569 382.976 15.6747C383.686 18.3969 383.689 18.8131 383.019 22.8316C381.984 29.0485 382.737 30.2792 388.834 32.3381C394.358 34.2031 396.373 35.184 401.03 38.2762C408.792 43.4298 416.787 52.6283 420.55 60.7359C424.048 68.2709 425.157 76.4157 423.858 85.0343C422.805 92.0267 422.574 97.0785 423.141 100.706C423.781 104.795 425.454 107.998 427.479 109.009C428.899 109.719 430.919 110.03 430.919 109.538Z" fill="black"/>
</svg>
