<svg width="732" height="303" viewBox="0 0 732 303" fill="none" xmlns="http://www.w3.org/2000/svg">
<path d="M196.5 165.125C181.042 165.125 169.042 161.312 160.5 153.688C151.958 146.021 147.688 134.396 147.688 118.812V102.062L140.188 100.625V76H189V100.625L181.5 102.062V112.5C181.5 113.375 181.5 114.25 181.5 115.125C181.542 116 181.562 116.833 181.562 117.625V118.938C181.562 124.562 182.625 129.021 184.75 132.312C186.917 135.604 190.833 137.25 196.5 137.25C202.208 137.25 206.146 135.604 208.312 132.312C210.521 128.979 211.625 124.479 211.625 118.812V117.375C211.625 116.625 211.604 115.833 211.562 115C211.562 114.125 211.562 113.25 211.562 112.375V102.062L204.062 100.625V76H247.438V100.625L239.875 102.062C239.833 102.688 239.812 103.312 239.812 103.938C239.812 104.521 239.812 105.104 239.812 105.688V118.812C239.812 133.479 236.208 144.875 229 153C221.792 161.083 210.958 165.125 196.5 165.125ZM255.125 164V139.062L262.625 137.625V102.188L255.125 100.75V76H332.375V108H323.812C321.021 105.917 317.604 104.25 313.562 103C309.521 101.75 305.083 101.125 300.25 101.125V114.688L317.562 111V128.812L300.25 125.062V138.875C305.125 138.875 309.583 138.271 313.625 137.062C317.708 135.854 321.104 134.167 323.812 132H332.375V164H255.125ZM341.25 164V139.062L348.75 137.625V102.062L341.25 100.625V76H386.375L416.438 123.438V102.188L408.938 100.625V76H446.5V100.625L439 102.062V137.625L446.5 139.062V164H401.375L371.312 117.812V137.625L378.875 139V164H341.25ZM502.812 165.125C492.479 165.125 483.5 163.438 475.875 160.062C468.292 156.646 462.438 151.521 458.312 144.688C454.188 137.812 452.125 129.188 452.125 118.812C452.125 108.438 454.146 99.9167 458.188 93.25C462.271 86.5833 468.062 81.6458 475.562 78.4375C483.104 75.2292 492.042 73.625 502.375 73.625C509.833 73.625 516.542 74.2917 522.5 75.625C528.5 76.9167 533.958 78.6667 538.875 80.875V108.062H521.188C519.604 105.854 517.667 103.958 515.375 102.375C513.125 100.792 510.333 100 507 100C501.75 100 497.562 101.812 494.438 105.438C491.354 109.021 489.812 113.479 489.812 118.812C489.812 125.271 491.458 130.062 494.75 133.188C498.042 136.271 502.875 137.812 509.25 137.812C514.542 137.812 519.562 137.25 524.312 136.125C529.104 135 533.958 133.708 538.875 132.25V159.438C526.458 163.229 514.438 165.125 502.812 165.125Z" fill="#EAFFD0"/>
<path d="M140.594 217V202.59L145.84 201.76V181.24L140.594 180.41V166H167.057L177.748 185.59L188.34 166H214.836V180.41L209.59 181.24V201.76L214.836 202.59V217H188.34V192.131L177.748 210.459L167.057 192.131V217H140.594ZM232.998 217V203.818L236.982 202.822L223.27 184.062L218.223 183.332V170.25H244.885V183.332L241.764 184.062L248.105 193.658L254.414 184.062L251.293 183.332V170.25H277.922V183.332L272.908 184.062L259.195 202.822L263.213 203.818V217H232.998ZM302.824 217V203.752L306.809 202.988V182.967L302.824 182.203V170.25H343.133C346.033 170.936 348.39 172.076 350.205 173.67C352.02 175.264 352.928 177.721 352.928 181.041C352.928 182.192 352.806 183.443 352.562 184.793C352.341 186.143 351.91 187.427 351.268 188.645C350.626 189.84 349.707 190.847 348.512 191.666C347.316 192.463 345.756 192.906 343.83 192.994C346.044 193.105 348.08 193.503 349.939 194.189C351.799 194.854 353.293 195.894 354.422 197.311C355.551 198.727 356.115 200.62 356.115 202.988C356.115 206.441 355.429 209.197 354.057 211.256C352.706 213.292 350.758 214.764 348.213 215.672C345.667 216.557 342.613 217 339.049 217H302.824ZM326.797 189.707H329.719C331.777 189.707 333.36 189.419 334.467 188.844C335.574 188.246 336.127 186.896 336.127 184.793C336.127 182.801 335.551 181.55 334.4 181.041C333.249 180.532 331.689 180.277 329.719 180.277H326.797V189.707ZM326.797 205.645H329.719C331.777 205.645 333.36 205.346 334.467 204.748C335.574 204.15 336.127 202.8 336.127 200.697C336.127 198.705 335.551 197.465 334.4 196.979C333.249 196.469 331.689 196.215 329.719 196.215H326.797V205.645ZM359.602 217V203.752L363.586 202.988V184.162L359.602 183.398V170.25H387.559V183.398L383.574 184.162V189.641H399.545V184.162L395.561 183.398V170.084H423.518V183.398L419.533 184.162V202.988L423.518 203.752V217H395.561V203.752L399.545 202.988V197.443H383.574V202.988L387.559 203.752V217H359.602ZM454.396 217.598C448.73 217.598 443.805 216.734 439.621 215.008C435.438 213.281 432.195 210.603 429.893 206.973C427.613 203.342 426.473 198.683 426.473 192.994C426.473 187.416 427.646 182.867 429.992 179.348C432.339 175.806 435.604 173.194 439.787 171.512C443.993 169.829 448.863 168.988 454.396 168.988C459.93 168.988 464.8 169.829 469.006 171.512C473.212 173.194 476.488 175.806 478.834 179.348C481.202 182.867 482.387 187.416 482.387 192.994C482.387 198.683 481.247 203.342 478.967 206.973C476.687 210.603 473.455 213.281 469.271 215.008C465.088 216.734 460.13 217.598 454.396 217.598ZM454.396 203.121C457.495 203.121 459.609 202.191 460.738 200.332C461.867 198.473 462.432 196.027 462.432 192.994C462.432 189.962 461.856 187.56 460.705 185.789C459.576 184.018 457.473 183.133 454.396 183.133C451.386 183.133 449.305 183.996 448.154 185.723C447.025 187.449 446.461 189.818 446.461 192.828C446.461 195.905 446.992 198.395 448.055 200.299C449.139 202.18 451.253 203.121 454.396 203.121ZM485.176 217V203.752L489.16 202.988V184.096L485.176 183.332V170.25H509.148V188.91L517.98 170.25H539.496V178.684C537.172 180.654 535.047 182.867 533.121 185.324C531.195 187.759 529.424 190.294 527.809 192.928C529.712 195.938 531.682 198.949 533.719 201.959C535.777 204.947 538.002 207.703 540.393 210.227V217H517.98L509.148 197.41V217H485.176Z" fill="#EAFFD0"/>
<path d="M68.1152 220.739C59.891 211.657 53.9119 200.254 50.1782 186.53C36.3534 183.25 25.3792 176.716 17.2559 166.928C9.18294 157.089 5.14648 143.617 5.14648 126.513C5.14648 113.041 7.99723 101.991 13.6987 93.3633C19.4002 84.7354 27.3218 78.3527 37.4634 74.2153C47.6554 70.078 59.4621 68.0093 72.8833 68.0093C86.3045 68.0093 98.1112 70.078 108.303 74.2153C118.495 78.3527 126.442 84.7354 132.144 93.3633C137.896 101.991 140.771 113.041 140.771 126.513C140.771 142.911 137.063 155.903 129.646 165.49C122.279 175.026 112.289 181.686 99.6753 185.47C101.794 188.094 104.065 190.844 106.487 193.72C108.959 196.646 111.204 199.32 113.223 201.742V220.739H68.1152ZM72.8833 150.807C80.3507 150.807 85.4468 148.587 88.1714 144.147C90.9465 139.707 92.334 133.829 92.334 126.513C92.334 119.146 90.9465 113.319 88.1714 109.03C85.3963 104.741 80.3003 102.597 72.8833 102.597C65.4663 102.597 60.3955 104.741 57.6709 109.03C54.9463 113.319 53.584 119.146 53.584 126.513C53.584 133.829 54.9211 139.707 57.5952 144.147C60.3198 148.587 65.4159 150.807 72.8833 150.807Z" fill="#EAFFD0"/>
<path d="M545.335 217V178.644L559.123 176.434V121.993L545.335 119.783V81.25H628.765V119.783L615.685 121.993V138.696H660.935V121.993L647.855 119.783V81.25H731.285V119.783L717.498 121.993V176.434L731.285 178.644V217H647.855V178.644L660.935 176.434V158.67H615.685V176.434L628.765 178.644V217H545.335Z" fill="#EAFFD0"/>
</svg>
